<svg width="36" height="52" viewBox="0 0 36 52" fill="none" xmlns="http://www.w3.org/2000/svg">
<path d="M19.5 2C19.5 1.17157 18.8284 0.5 18 0.5C17.1716 0.5 16.5 1.17157 16.5 2L19.5 2ZM16.9393 43.0607C17.5251 43.6464 18.4749 43.6464 19.0607 43.0607L28.6066 33.5147C29.1924 32.9289 29.1924 31.9792 28.6066 31.3934C28.0208 30.8076 27.0711 30.8076 26.4853 31.3934L18 39.8787L9.51472 31.3934C8.92893 30.8076 7.97918 30.8076 7.3934 31.3934C6.80761 31.9792 6.80761 32.9289 7.3934 33.5147L16.9393 43.0607ZM16.5 2L16.5 42L19.5 42L19.5 2L16.5 2Z" fill="white"/>
<rect y="49" width="36" height="3" rx="1.5" fill="white"/>
</svg>
