<svg width="79" height="34" viewBox="0 0 79 34" fill="none" xmlns="http://www.w3.org/2000/svg">
<path d="M52.9225 27.1402C53.451 27.5329 53.3628 27.9809 52.7065 28.1261C47.2299 29.3383 40.9614 29.754 34.8315 29.3023C28.2593 28.818 22.2532 27.3666 17.8366 25.1953C13.4199 23.024 10.866 20.2673 10.61 17.3947C10.354 14.5222 12.4117 11.7116 16.4325 9.44182C20.4534 7.17208 26.1886 5.58362 32.6609 4.94711C39.1332 4.31059 45.9422 4.66539 51.9277 5.95106C57.9132 7.23673 62.7049 9.37373 65.4863 11.9979C68.0898 14.4543 68.7812 17.1954 67.4765 19.8089C67.3149 20.1328 66.6911 20.2847 65.958 20.1982V20.1982C64.7651 20.0575 63.8414 19.3701 64.0363 18.8259C64.7805 16.7473 64.0977 14.604 62.0425 12.6649C59.6276 10.3865 55.4674 8.53116 50.2707 7.41492C45.074 6.29868 39.1623 5.99063 33.5429 6.54327C27.9235 7.0959 22.9441 8.47503 19.4532 10.4457C15.9622 12.4163 14.1756 14.8565 14.3979 17.3505C14.6202 19.8445 16.8375 22.238 20.6721 24.1231C24.5068 26.0083 29.7214 27.2685 35.4275 27.6889C40.6911 28.0768 46.0724 27.728 50.7899 26.7022C51.4487 26.5589 52.3939 26.7474 52.9225 27.1402V27.1402Z" fill="white"/>
<path d="M62.1505 25.139L58.0162 18.5205L73.4457 20.2939L62.1505 25.139Z" fill="white"/>
</svg>
