<svg width="47" height="40" viewBox="0 0 47 40" fill="none" xmlns="http://www.w3.org/2000/svg">
<path fill-rule="evenodd" clip-rule="evenodd" d="M44.9549 0H36.4138V1.11406H44.9549V9.65517H46.069V0H46.069H44.9549Z" fill="white"/>
<path fill-rule="evenodd" clip-rule="evenodd" d="M0.551727 30.3448L0.551726 40L1.66578 40L10.2069 40L10.2069 38.8859L1.66578 38.8859L1.66579 30.3448L0.551727 30.3448Z" fill="white"/>
<path fill-rule="evenodd" clip-rule="evenodd" d="M36.4138 40L46.069 40L46.069 38.8859L46.069 30.3448L44.9549 30.3448L44.9549 38.8859L36.4138 38.8859L36.4138 40Z" fill="white"/>
<path fill-rule="evenodd" clip-rule="evenodd" d="M0.551759 9.53674e-06L0.551758 9.65518L1.66582 9.65518L1.66582 1.11406L10.2069 1.11406L10.2069 1.26613e-06L0.551777 0L0.551777 9.53675e-06L0.551759 9.53674e-06Z" fill="white"/>
<path d="M37.2184 20C37.2184 27.824 30.8758 34.1667 23.0517 34.1667C15.2277 34.1667 8.88507 27.824 8.88507 20C8.88507 12.176 15.2277 5.83334 23.0517 5.83334C30.8758 5.83334 37.2184 12.176 37.2184 20ZM10.5319 20C10.5319 26.9145 16.1372 32.5199 23.0517 32.5199C29.9663 32.5199 35.5716 26.9145 35.5716 20C35.5716 13.0855 29.9663 7.48016 23.0517 7.48016C16.1372 7.48016 10.5319 13.0855 10.5319 20Z" fill="white"/>
<circle cx="23.0517" cy="20" r="8.33333" fill="white"/>
</svg>
