<svg width="40" height="40" viewBox="0 0 40 40" fill="none" xmlns="http://www.w3.org/2000/svg">
<path fill-rule="evenodd" clip-rule="evenodd" d="M38.9859 38.9859C39.8977 38.0741 39.8977 36.5958 38.9859 35.684L23.467 20.1651L39.3161 4.31595C40.2279 3.40415 40.2279 1.92584 39.3161 1.01405C38.4043 0.102252 36.926 0.10225 36.0142 1.01404L20.1651 16.8632L3.98575 0.683846C3.07395 -0.227949 1.59564 -0.227949 0.683847 0.683846C-0.227948 1.59564 -0.22795 3.07395 0.683845 3.98575L16.8632 20.1651L1.01401 36.0142C0.102215 36.926 0.102215 38.4043 1.01401 39.3161C1.92581 40.2279 3.40412 40.2279 4.31591 39.3161L20.1651 23.467L35.684 38.9859C36.5958 39.8977 38.0741 39.8977 38.9859 38.9859Z" fill="white"/>
</svg>
